<svg version="1.2" xmlns="http://www.w3.org/2000/svg" viewBox="0 0 800 800" width="800" height="800">
	<title>traffic_light_006-ai</title>
	<style>
		.s0 { fill: #333333 } 
		.s1 { fill: #666666 } 
		.s2 { fill: #4d4d4d } 
		.s3 { fill: #c72b00 } 
		.s4 { fill: #999999 } 
		.s5 { fill: #e6e6e6 } 
		.s6 { fill: #f22b00 } 
		.s7 { fill: #ffffff } 
	</style>
	<g id="Layer 1">
		<g id="&lt;Group&gt;">
			<path id="&lt;Compound Path&gt;" fill-rule="evenodd" class="s0" d="m525.1 247.8v-127.4h124.3c0 0-9.7 34.5-63.5 63.8-4.2 29.5-28.3 53.8-60.8 63.6zm11.4-101.8h75.8c3.8-3.7 6.9-7.1 9.5-10.3h-85.3zm-11.4 187.9h124.3c0 0-9.7 34.5-63.5 63.8-4.2 29.5-28.3 53.9-60.8 63.7zm11.4 25.6h75.8c3.8-3.6 6.9-7.1 9.5-10.3h-85.3zm-385.9 187.9h124.3v127.5c-32.5-9.8-56.6-34.2-60.8-63.7-53.8-29.3-63.5-63.8-63.5-63.8zm27.6 15.3c2.6 3.2 5.7 6.7 9.5 10.4h75.8v-10.4zm-27.6-442.4h124.3v127.5c-32.5-9.8-56.6-34.2-60.8-63.7-53.7-29.3-63.5-63.8-63.5-63.8zm27.6 15.3c2.6 3.2 5.7 6.7 9.5 10.3h75.8v-10.3zm347 411.8h124.3c0 0-9.8 34.5-63.5 63.8-4.2 29.5-28.3 53.9-60.8 63.7zm11.4 25.6h75.8c3.8-3.6 6.9-7.1 9.5-10.3h-85.3zm-385.9-239.2h124.2v127.5c-32.5-9.8-56.6-34.2-60.8-63.7-53.7-29.3-63.4-63.8-63.4-63.8zm27.5 15.3c2.6 3.2 5.8 6.7 9.5 10.3h75.9v-10.3z"/>
			<path id="&lt;Compound Path&gt;" fill-rule="evenodd" class="s1" d="m612.3 146h-75.8v-10.3h85.3c-2.6 3.2-5.7 6.6-9.5 10.3zm-434.1 203.2h85.3v10.4h-75.8c-3.8-3.7-6.9-7.2-9.5-10.4zm0-213.5h85.3v10.3h-75.8c-3.8-3.7-6.9-7.1-9.5-10.3zm0 427.1h85.3v10.3h-75.8c-3.8-3.6-6.9-7.1-9.5-10.3zm358.3-213.6h85.3c-2.6 3.2-5.7 6.7-9.5 10.4h-75.8zm0 213.5h85.3c-2.6 3.2-5.7 6.7-9.5 10.4h-75.8zm-24.5-463.3v598.9c0 21.9-16.5 39.8-36.8 39.8h-150.4c-20.3 0-36.8-17.9-36.8-39.8v-598.9c0-21.9 16.5-39.8 36.8-39.8h150.4c20.3 0 36.8 17.9 36.8 39.8zm-29.2 512.1h7.8l-0.2-2.1q0-0.8-0.1-1.5c-1.2-16.6-6.9-31.9-15.8-44.7q-2.6-5.4-6-10.3c-15.2-22.3-40.8-36.4-68.5-36.4-27.7 0-53.3 14.1-68.5 36.4q-3.4 4.9-6 10.3c-8.9 12.8-14.6 28.1-15.8 44.7q-0.1 0.7-0.1 1.5l-0.2 2.1h7.8c-0.1 0.6-0.1 1.3-0.1 1.9q0 1.1 0.1 2.2v0.5c0.1 5.7 0.9 11.3 2.2 16.8 1.2 4.8 2.8 9.5 4.8 14 12.5 28.3 39.5 47.1 70 49.2q0.2 0 0.4 0.1c0.6 0 1.1 0 1.7 0q0.6 0.1 1.2 0.1c0.9 0 1.7 0.1 2.5 0.1 0.8 0 1.7-0.1 2.5-0.1q0.6 0 1.2-0.1c0.6 0 1.1 0 1.7 0q0.2-0.1 0.4-0.1c30.5-2.1 57.5-20.9 70-49.2 2-4.5 3.6-9.2 4.8-14 1.3-5.5 2.1-11.1 2.2-16.8v-0.4q0.1-1.1 0.1-2.3 0-0.9-0.1-1.9zm7.8-213.6l-0.2-2.1q0-1.5-0.2-2.9c-1.4-16-7-30.8-15.7-43.3q-3-6.2-7-11.7c-15.3-21.5-40.4-34.9-67.5-34.9-27.1 0-52.2 13.4-67.5 34.9q-4 5.5-7 11.7c-8.7 12.5-14.3 27.3-15.7 43.3q-0.2 1.4-0.2 2.9l-0.2 2.1h7.8c-0.1 0.7-0.1 1.3-0.1 2q0 1.1 0.1 2.2v0.4c0.1 5.7 0.9 11.3 2.2 16.8 1.2 4.8 2.8 9.6 4.8 14.1 12.5 28.2 39.5 47 70 49.1q0.2 0.1 0.4 0.1c0.6 0 1.1 0 1.7 0.1q0.6 0 1.2 0c0.9 0 1.7 0.1 2.5 0.1 0.8 0 1.7-0.1 2.5-0.1q0.6 0 1.2 0c0.6-0.1 1.1-0.1 1.7-0.1q0.2 0 0.4-0.1c30.5-2.1 57.5-20.9 70-49.1 2-4.6 3.6-9.3 4.8-14.1 1.3-5.5 2.1-11.1 2.2-16.8v-0.4q0.1-1.1 0.1-2.2 0-1-0.1-2zm0-213.5l-0.1-2.2q-0.1-1.2-0.2-2.3c-1.3-16.2-6.9-31.2-15.7-43.9q-2.9-5.9-6.6-11.1c-15.3-21.8-40.6-35.5-67.9-35.5-27.4 0-52.7 13.7-68 35.5q-3.7 5.2-6.6 11.1c-8.7 12.7-14.3 27.7-15.7 43.9q-0.1 1.1-0.2 2.3l-0.1 2.2h7.7c0 0.6 0 1.2 0 1.9q0 1.1 0 2.2v0.4c0.2 5.7 1 11.4 2.3 16.8 1.2 4.8 2.8 9.6 4.8 14.1 12.4 28.2 39.5 47 70 49.2q0.2 0 0.4 0c0.6 0.1 1.1 0.1 1.7 0.1q0.6 0 1.2 0c0.8 0.1 1.6 0.1 2.5 0.1 0.8 0 1.6 0 2.5-0.1q0.6 0 1.2 0c0.5 0 1.1 0 1.7-0.1q0.2 0 0.4 0c30.4-2.2 57.5-21 70-49.2 2-4.5 3.6-9.3 4.8-14.1 1.3-5.4 2-11.1 2.2-16.8v-0.3q0.1-1.2 0.1-2.3 0-1-0.1-1.9z"/>
			<path id="&lt;Compound Path&gt;" fill-rule="evenodd" class="s2" d="m525.1 91.1v617.8c0 22.7-18.4 41.1-41 41.1h-168.2c-22.6 0-41-18.4-41-41.1v-617.8c0-22.7 18.4-41.1 41-41.1h168.2c22.6 0 41 18.4 41 41.1zm-13.1 8.5c0-22-16.5-39.8-36.8-39.8h-150.4c-20.3 0-36.8 17.8-36.8 39.8v598.8c0 22 16.5 39.8 36.8 39.8h150.4c20.3 0 36.8-17.8 36.8-39.8zm-29.2 85q0.1 0.9 0.1 1.9 0 1.2-0.1 2.3v0.4c-0.1 5.6-0.9 11.3-2.2 16.7-1.2 4.9-2.8 9.6-4.8 14.1-12.5 28.2-39.5 47.1-70 49.2q0.5-0.1 0.9-0.1 2-0.2 4-0.5 0.6-0.1 1.3-0.2 2-0.4 3.9-0.8 0.5-0.2 1-0.3 2.1-0.5 4.2-1.2 0.3-0.1 0.7-0.2 2.1-0.7 4.2-1.6 0.2-0.1 0.5-0.2 2.2-0.9 4.3-2 0.1 0 0.2-0.1 2.3-1.1 4.4-2.4 0 0 0.1 0 2.2-1.4 4.3-2.8 0 0 0 0c10-7.2 18.2-17 23.2-28.4q0.9-2 1.6-4 1.4-3.7 2.4-7.7 1.6-6.7 1.8-13.9 0.1-1.1 0.1-2.2c0-5.2-0.6-10.1-1.6-14.9q-0.6-2.4-1.3-4.8-0.1-0.4-0.2-0.8-0.6-1.9-1.3-3.7c-9.3-25-32.8-43-60.6-44.6q-2-0.1-3.9-0.1-1.9 0-3.9 0.1c-27.8 1.6-51.3 19.6-60.6 44.6q-0.7 1.8-1.3 3.7-0.1 0.4-0.2 0.8-0.7 2.4-1.3 4.8c-1 4.8-1.6 9.7-1.6 14.9q0 1.1 0.1 2.2c0.1 4.8 0.8 9.4 1.8 13.9q1 4 2.4 7.7 0.7 2 1.6 4c5 11.4 13.1 21.2 23.2 28.4q0 0 0 0 0 0 0 0 2.1 1.4 4.3 2.8 0.1 0 0.1 0 2.1 1.3 4.4 2.4 0.1 0.1 0.2 0.1 2.1 1.1 4.3 2 0.3 0.1 0.5 0.2 2.1 0.9 4.2 1.6 0.4 0.1 0.8 0.2 2 0.7 4.1 1.2 0.5 0.1 1 0.3 1.9 0.4 3.9 0.8 0.7 0.1 1.3 0.2 2 0.3 4 0.5 0.4 0 0.9 0.1c-30.5-2.1-57.5-21-70-49.2-2-4.5-3.6-9.2-4.8-14-1.3-5.5-2.1-11.1-2.2-16.8v-0.5q-0.1-1.1-0.1-2.2c0-0.6 0-1.3 0.1-1.9h1.7l0.3-1.6q0.3-1.5 0.6-2.9c2-8.7 5.3-16.9 9.8-24.3q1.3-2.1 2.7-4.1 1.4-2 2.8-3.9c4.4-5.6 9.5-10.6 15.2-14.9q5.8-4.5 12.4-7.8c11.2-5.7 23.8-9 37.3-9 13.5 0 26.1 3.3 37.3 9q6.6 3.3 12.4 7.7c5.7 4.4 10.8 9.4 15.2 15q1.4 1.9 2.8 3.9 1.4 2 2.7 4.1c4.5 7.4 7.8 15.6 9.8 24.3q0.3 1.4 0.6 2.9l0.3 1.6zm-122.6 72.2q0 0 0 0 0 0 0 0zm122.6 141.4q0.1 0.9 0.1 1.9 0 1.1-0.1 2.3v0.3c-0.2 5.7-0.9 11.4-2.2 16.8-1.2 4.8-2.8 9.6-4.8 14.1-12.5 28.2-39.6 47-70 49.2q0.5-0.1 0.9-0.1 2-0.2 4-0.5 0.6-0.1 1.3-0.3 2-0.3 3.9-0.7 0.5-0.2 1-0.3 2.1-0.5 4.1-1.2 0.4-0.1 0.7-0.2 2.2-0.7 4.3-1.6 0.2-0.1 0.4-0.2 2.3-0.9 4.4-2 0.1 0 0.2-0.1 2.3-1.1 4.4-2.4 0 0 0.1 0 2.2-1.4 4.2-2.9 0 0 0.1 0 0 0 0 0c10-7.1 18.1-16.9 23.2-28.3q0.9-2 1.6-4 1.4-3.8 2.4-7.7 1.6-6.8 1.8-14 0.1-1.1 0.1-2.2c0-5.1-0.6-10.1-1.7-14.9q-0.5-2.4-1.2-4.7c-0.1-0.5-0.3-0.9-0.4-1.4-0.4-1.1-0.7-2.1-1.1-3.1-9.4-25-32.8-43.1-60.7-44.6q-1.9-0.2-3.8-0.2-2 0-3.9 0.2c-27.8 1.5-51.3 19.6-60.6 44.6-0.4 1-0.7 2-1.1 3.1-0.1 0.5-0.3 0.9-0.4 1.4q-0.7 2.3-1.3 4.7c-1 4.8-1.6 9.8-1.6 14.9q0 1.1 0 2.2c0.2 4.8 0.8 9.5 1.9 14q1 3.9 2.4 7.7 0.7 2 1.6 4c5.7 13 15.4 23.9 27.5 31.2q0 0 0 0 2.2 1.3 4.5 2.4 0.1 0.1 0.1 0.1 2.2 1.1 4.4 2 0.3 0.1 0.5 0.2 2.1 0.9 4.2 1.6 0.4 0.1 0.7 0.2 2.1 0.7 4.1 1.2 0.5 0.1 1 0.3 2 0.4 4 0.7 0.6 0.2 1.3 0.3 2 0.3 4 0.5 0.4 0 0.9 0.1c-30.5-2.2-57.5-21-70-49.2-2-4.5-3.6-9.2-4.8-14.1-1.3-5.4-2.1-11.1-2.2-16.8l-0.1-0.4q0-1.1 0-2.2c0-0.7 0-1.3 0-1.9h1.8l0.3-1.7q0.3-1.7 0.7-3.4c2-8.5 5.3-16.5 9.7-23.7q1.3-2.1 2.7-4.1 1.4-2 2.8-3.9c4.4-5.6 9.5-10.7 15.1-15 4.3-3.2 8.8-6 13.6-8.3 10.9-5.4 23.2-8.4 36.2-8.4 13 0 25.3 3 36.2 8.4 4.8 2.3 9.3 5.1 13.5 8.3 5.7 4.3 10.8 9.3 15.1 15q1.5 1.9 2.9 3.9 1.4 2 2.7 4.1c4.4 7.2 7.7 15.2 9.7 23.7q0.4 1.7 0.7 3.4l0.3 1.7zm-43.1 72.1q0 0 0 0 0 0 0 0zm43.1 141.4q0.1 1 0.1 2 0 1.1-0.1 2.3v0.3c-0.2 5.7-0.9 11.3-2.2 16.8-1.2 4.8-2.8 9.5-4.8 14.1-12.5 28.2-39.6 47-70 49.1q0.4 0 0.9-0.1 2-0.1 4-0.4 0.6-0.2 1.3-0.3 1.9-0.3 3.9-0.8 0.5-0.1 1-0.2 2.1-0.6 4.1-1.2 0.4-0.1 0.7-0.3 2.2-0.7 4.3-1.5 0.2-0.1 0.4-0.2 2.3-0.9 4.4-2 0.1-0.1 0.2-0.1 2.2-1.2 4.4-2.5 0 0 0 0c12.1-7.3 21.8-18.1 27.6-31.1q0.8-2 1.6-4 1.4-3.8 2.3-7.7 1.7-6.8 1.9-14 0.1-1.1 0.1-2.2c0-5.1-0.6-10.1-1.7-14.9q-0.5-2.4-1.2-4.7 0 0 0 0-0.7-2.3-1.5-4.6c-9.4-24.9-32.8-43-60.7-44.5q-1.9-0.2-3.8-0.2-2 0-3.9 0.2c-27.8 1.5-51.3 19.6-60.7 44.5q-0.8 2.3-1.5 4.6 0 0 0 0-0.7 2.3-1.2 4.7c-1 4.8-1.6 9.8-1.6 14.9q0 1.1 0 2.2c0.2 4.8 0.8 9.5 1.9 14q1 3.9 2.4 7.7 0.7 2 1.6 4c5.7 13 15.4 23.8 27.5 31.1q0 0 0 0 2.2 1.3 4.5 2.5 0.1 0 0.1 0.1 2.2 1.1 4.4 2 0.2 0.1 0.4 0.2 2.1 0.8 4.3 1.6 0.4 0.1 0.7 0.2 2 0.6 4.1 1.2 0.5 0.1 1 0.2 2 0.5 4 0.8 0.6 0.1 1.3 0.3 1.9 0.3 3.9 0.4 0.5 0.1 1 0.1c-30.5-2.1-57.6-20.9-70-49.1-2-4.5-3.6-9.3-4.8-14.1-1.3-5.4-2.1-11.1-2.3-16.8v-0.4q0-1.1 0-2.2c0-0.7 0-1.3 0-2h1.7l0.4-1.6q0.2-1 0.4-2c1.9-9 5.3-17.5 10-25.1q1.2-2.1 2.6-4.1 1.4-2.1 2.9-4c4.4-5.6 9.5-10.6 15.1-14.9q5.1-3.9 10.8-6.9c11.6-6.3 24.9-9.8 39-9.8 14.1 0 27.4 3.5 39 9.8q5.6 3 10.7 6.9c5.7 4.3 10.7 9.3 15.1 14.9q1.5 1.9 2.9 4 1.4 2 2.7 4.1c4.6 7.6 8 16.1 10 25.1q0.2 1 0.4 2l0.3 1.6zm-150.7-56.8c-1 1.2-2.1 2.5-3.2 3.7q-1.8 2.4-3.5 4.8 2.7-5.4 6-10.3c15.2-22.3 40.9-36.3 68.6-36.3 27.6 0 53.3 14 68.5 36.3q3.3 4.9 6 10.3-1.7-2.4-3.5-4.8-1.4-1.7-2.9-3.4-0.9-1-1.7-1.9-0.1-0.1-0.2-0.2-2.4-2.6-5-4.9c-16.1-14.8-37.6-23.9-61.2-23.9-23.7 0-45.2 9.1-61.3 23.9q-2.6 2.3-4.9 4.9-0.1 0.1-0.2 0.2c-0.5 0.5-1 1.1-1.5 1.6zm-0.3-213.2q-1.5 1.6-2.9 3.4-1.8 2.3-3.5 4.7 3.1-6.2 7-11.7c15.3-21.5 40.5-34.9 67.6-34.9 27 0 52.1 13.4 67.5 34.9q4 5.5 7 11.7-1.7-2.4-3.5-4.7-1.4-1.8-2.9-3.5-0.9-0.9-1.7-1.9c-0.6-0.5-1.1-1.1-1.7-1.6-1.1-1.2-2.3-2.4-3.5-3.5-16.1-14.8-37.6-23.9-61.2-23.9-23.7 0-45.2 9.1-61.3 23.9-1.2 1.1-2.4 2.3-3.5 3.5-0.5 0.5-1.1 1.1-1.6 1.6q-0.9 1-1.8 2zm-2.9-210.2q-1.8 2.3-3.5 4.8 2.9-5.9 6.6-11.2c15.3-21.8 40.6-35.5 68-35.5 27.3 0 52.6 13.7 67.9 35.5q3.7 5.3 6.6 11.2-1.7-2.5-3.5-4.8-1.4-1.8-2.9-3.4-0.9-1-1.7-2c-0.4-0.3-0.8-0.7-1.1-1-1.3-1.4-2.7-2.8-4.1-4.1-16.1-14.8-37.6-23.9-61.2-23.9-23.7 0-45.2 9.1-61.3 23.9-1.4 1.3-2.8 2.7-4.1 4.1-0.3 0.3-0.7 0.7-1 1q-0.9 1-1.8 2-1.5 1.6-2.9 3.4z"/>
			<path id="&lt;Compound Path&gt;" class="s3" d="m404.2 269.2c0.4 0 0.8 0 1.2 0-0.6 0-1.1 0-1.7 0q-0.6 0.1-1.2 0.1c-0.8 0-1.7 0.1-2.5 0.1 0.7 0 1.5-0.1 2.2-0.1q1 0 2-0.1zm-6.4 0.1c0.7 0 1.5 0.1 2.2 0.1-0.8 0-1.6-0.1-2.5-0.1q-0.6 0-1.2-0.1c-0.6 0-1.1 0-1.7 0 0.4 0 0.8 0 1.2 0q1 0.1 2 0.1zm71.1-68.8q0 1.1-0.1 2.2-0.2 7.2-1.8 13.9-1 4-2.4 7.7-0.7 2.1-1.6 4c-5 11.5-13.2 21.2-23.2 28.4-11.8 5.5-25.4 8.7-39.8 8.7-14.4 0-28-3.2-39.8-8.7-10-7.2-18.2-16.9-23.2-28.4q-0.9-1.9-1.6-4-1.4-3.7-2.4-7.7c-1-4.4-1.7-9.1-1.8-13.9q-0.1-1.1-0.1-2.2c0-5.1 0.6-10.1 1.6-14.9q0.6-2.4 1.3-4.8 0.1-0.4 0.2-0.8 0.6-1.9 1.3-3.7c9.3-25 32.8-43 60.6-44.6-26.2 1.9-47.3 22.3-50.1 48.3q-0.3 2.9-0.3 5.9c0 30 24.3 54.4 54.3 54.4 30 0 54.3-24.4 54.3-54.4q0-3-0.3-5.9c-2.8-26-23.9-46.4-50.1-48.3 27.8 1.6 51.3 19.6 60.6 44.6q0.7 1.8 1.3 3.7 0.1 0.4 0.2 0.8 0.7 2.4 1.3 4.8c1 4.8 1.6 9.8 1.6 14.9z"/>
			<path id="&lt;Compound Path&gt;" class="s4" d="m490.4 396l0.2 2.1h-9.5l-0.3-1.7q-0.3-1.7-0.7-3.4c-2-8.5-5.3-16.5-9.7-23.7q-1.3-2.1-2.7-4.1-1.4-2-2.8-3.9c-4.4-5.6-9.5-10.6-15.2-15-4.2-3.2-8.7-5.9-13.5-8.3-10.9-5.4-23.2-8.4-36.2-8.4-13 0-25.3 3-36.2 8.4-4.8 2.4-9.3 5.2-13.5 8.4-5.7 4.3-10.8 9.3-15.2 14.9q-1.4 1.9-2.8 3.9-1.4 2-2.7 4.1c-4.4 7.2-7.7 15.2-9.7 23.7q-0.4 1.7-0.7 3.4l-0.3 1.7h-9.5l0.2-2.1q0-1.5 0.2-3c1.4-16 7-30.8 15.7-43.2q1.6-2.5 3.5-4.8 1.4-1.8 2.9-3.4 1.9-1.9 4-3.6c2.4-2 4.9-3.9 7.5-5.6 15.7-10.6 35.3-16.8 56.6-16.8 21.3 0 40.8 6.2 56.6 16.7 2.6 1.8 5.1 3.7 7.5 5.7q2.1 1.7 4 3.6 1.5 1.6 2.9 3.4 1.9 2.3 3.5 4.8c8.7 12.5 14.3 27.2 15.7 43.2q0.2 1.5 0.2 3zm0 213.5l0.2 2.1h-9.5l-0.3-1.6q-0.2-1-0.4-2c-2-9-5.4-17.5-10-25.1q-1.3-2.1-2.7-4.1-1.4-2.1-2.8-4c-4.4-5.6-9.5-10.6-15.2-14.9q-5.1-3.8-10.7-6.9c-11.6-6.3-24.9-9.8-39-9.8-14.1 0-27.4 3.5-39 9.8q-5.6 3.1-10.7 6.9c-5.7 4.3-10.8 9.3-15.2 14.9q-1.4 1.9-2.8 4-1.4 2-2.7 4.1c-4.6 7.6-8 16.1-10 25.1q-0.2 1-0.4 2l-0.3 1.6h-9.5l0.2-2.1q0-0.7 0.1-1.5c1.2-16.5 6.9-31.8 15.8-44.7q1.7-2.4 3.5-4.7c1-1.3 2.1-2.5 3.2-3.8 0.7-0.6 1.3-1.2 2-1.8q4.3-3.8 9.2-7.1c15.7-10.5 35.3-16.7 56.6-16.7 21.3 0 40.8 6.2 56.6 16.7q4.9 3.3 9.2 7.1c0.8 0.7 1.6 1.4 2.3 2.1q1.5 1.7 2.9 3.5 1.8 2.3 3.5 4.7c8.9 12.9 14.6 28.2 15.8 44.7q0.1 0.8 0.1 1.5zm-171.5-425h-9.5l0.2-2.1q0-1.2 0.1-2.4c1.4-16.2 7-31.2 15.8-43.8q1.7-2.5 3.5-4.8 1.4-1.7 2.9-3.4 1.6-1.5 3.3-3 3.9-3.3 8.2-6.2c15.7-10.5 35.3-16.8 56.6-16.8 21.3 0 40.8 6.3 56.5 16.8q4.4 2.9 8.3 6.2 1.7 1.5 3.3 3 1.5 1.7 2.9 3.4 1.9 2.3 3.5 4.8c8.8 12.6 14.4 27.6 15.8 43.8q0.1 1.2 0.1 2.4l0.2 2.1h-9.5l-0.3-1.6q-0.3-1.5-0.6-2.9c-2-8.7-5.3-16.9-9.8-24.3q-1.3-2.1-2.7-4.1-1.4-2-2.8-3.9c-4.4-5.6-9.5-10.6-15.2-14.9q-5.8-4.5-12.4-7.8c-11.2-5.7-23.8-9-37.3-9-13.5 0-26.1 3.3-37.3 9q-6.6 3.4-12.4 7.8c-5.7 4.3-10.8 9.3-15.2 14.9q-1.4 1.9-2.8 3.9-1.4 2-2.7 4.1c-4.5 7.4-7.8 15.6-9.8 24.3q-0.3 1.4-0.6 2.9z"/>
			<path id="&lt;Compound Path&gt;" class="s5" d="m335.2 125q-1.7 1.5-3.3 3 0.8-1 1.7-1.9c0.3-0.4 0.7-0.7 1.1-1.1 1.3-1.4 2.6-2.7 4-4 16.1-14.9 37.7-23.9 61.3-23.9 23.6 0 45.2 9 61.3 23.9 1.4 1.3 2.7 2.6 4 4 0.4 0.4 0.8 0.7 1.1 1.1q0.9 0.9 1.7 1.9-1.6-1.5-3.3-3-3.9-3.3-8.3-6.2c-15.7-10.5-35.2-16.8-56.5-16.8-21.3 0-40.9 6.3-56.6 16.8q-4.3 2.9-8.2 6.2zm0.7 213q-2.1 1.7-4 3.6 0.8-1 1.7-2c0.5-0.5 1.1-1 1.6-1.6 1.2-1.2 2.3-2.4 3.5-3.5 16.1-14.8 37.7-23.9 61.3-23.9 23.6 0 45.2 9.1 61.3 23.9 1.2 1.1 2.3 2.3 3.5 3.5 0.5 0.6 1.1 1.1 1.6 1.6q0.9 1 1.7 2-1.9-1.9-4-3.6c-2.4-2-4.9-3.9-7.5-5.7-15.8-10.5-35.3-16.7-56.6-16.7-21.3 0-40.9 6.2-56.6 16.8-2.6 1.7-5.1 3.6-7.5 5.6zm130.5 215.2q0.9 1 1.7 1.9c-0.7-0.7-1.5-1.4-2.3-2.1q-4.3-3.8-9.2-7.1c-15.8-10.5-35.3-16.7-56.6-16.7-21.3 0-40.9 6.2-56.6 16.7q-4.9 3.3-9.2 7.1c-0.7 0.6-1.3 1.2-2 1.8 0.5-0.5 0.9-1.1 1.4-1.6q0.1-0.1 0.2-0.2 2.4-2.5 4.9-4.9c16.1-14.8 37.7-23.9 61.3-23.9 23.6 0 45.2 9.1 61.3 23.9q2.5 2.4 4.9 4.9 0.1 0.1 0.2 0.2z"/>
			<path id="&lt;Path&gt;" class="s6" d="m454.3 184.9c0 30-24.3 54.4-54.3 54.4-30 0-54.3-24.4-54.3-54.4q0-3 0.3-5.9c2.8-26 23.9-46.4 50.1-48.3 1.3 0 2.6-0.1 3.9-0.1 1.3 0 2.6 0.1 3.9 0.1 26.2 1.9 47.3 22.3 50.1 48.3q0.3 2.9 0.3 5.9z"/>
			<path id="&lt;Compound Path&gt;" class="s7" d="m364.6 473.1q-2.3-1.4-4.4-2.9c11.8 5.6 25.4 8.7 39.8 8.7 14.4 0 28-3.1 39.8-8.6q0 0 0 0-2.1 1.4-4.3 2.8-0.1 0-0.1 0-2.1 1.3-4.4 2.4-0.1 0.1-0.2 0.1-2.1 1.1-4.4 2-0.2 0.1-0.4 0.2-2.1 0.9-4.2 1.6-0.4 0.1-0.7 0.2-2.1 0.7-4.2 1.2-0.5 0.1-1 0.3-1.9 0.4-3.9 0.8-0.7 0.1-1.3 0.2-2 0.3-4 0.5-0.4 0-0.9 0.1-0.2 0-0.4 0c-0.4 0.1-0.8 0-1.2 0.1q-1 0-2 0.1c-0.7 0-1.5 0-2.2 0-0.7 0-1.5 0-2.2 0q-1-0.1-2-0.1c-0.4-0.1-0.8 0-1.2-0.1q-0.2 0-0.4 0-0.5-0.1-0.9-0.1-2-0.2-4-0.5-0.6-0.1-1.3-0.2-2-0.4-3.9-0.8-0.5-0.2-1-0.3-2.1-0.5-4.2-1.2-0.3-0.1-0.7-0.2-2.1-0.7-4.2-1.6-0.2-0.1-0.4-0.2-2.3-0.9-4.4-2-0.1 0-0.2-0.1-2.3-1.1-4.4-2.4 0 0 0 0zm75.2-2.8q0 0 0 0 0 0 0 0zm-79.6-213.6q0 0 0 0 0 0 0 0c11.8 5.5 25.4 8.7 39.8 8.7 14.4 0 28-3.2 39.8-8.7q0 0 0 0-2.1 1.5-4.3 2.8-0.1 0-0.1 0-2.1 1.3-4.4 2.5-0.1 0-0.2 0.1-2.1 1-4.3 2-0.3 0-0.5 0.1-2.1 0.9-4.2 1.6-0.4 0.1-0.7 0.3-2.1 0.6-4.2 1.1-0.5 0.2-1 0.3-1.9 0.4-3.9 0.8-0.7 0.1-1.3 0.2c-1.3 0.2-2.6 0.4-4 0.5q-0.4 0.1-0.9 0.1-0.2 0-0.4 0.1c-0.4 0-0.8 0-1.2 0q-1 0.1-2 0.1c-0.7 0-1.5 0.1-2.2 0.1-0.7 0-1.5-0.1-2.2-0.1q-1 0-2-0.1c-0.4 0-0.8 0-1.2 0q-0.2-0.1-0.4-0.1-0.5 0-0.9-0.1c-1.4-0.1-2.7-0.3-4-0.5q-0.6-0.1-1.3-0.2-2-0.4-3.9-0.8-0.5-0.1-1-0.3-2.1-0.5-4.1-1.1-0.4-0.2-0.8-0.3-2.1-0.7-4.2-1.6-0.2-0.1-0.5-0.1-2.2-1-4.3-2-0.1-0.1-0.2-0.1-2.3-1.2-4.4-2.5 0 0-0.1 0-2.2-1.3-4.3-2.8zm39.8 435.8c14.4 0 28-3.2 39.8-8.7q-2.1 1.5-4.3 2.8-0.1 0.1-0.1 0.1-2.1 1.3-4.4 2.4-0.1 0-0.2 0.1-2.1 1.1-4.3 2-0.3 0.1-0.5 0.2-2.1 0.8-4.2 1.6-0.4 0.1-0.7 0.2-2.1 0.6-4.1 1.2-0.6 0.1-1.1 0.2-1.9 0.5-3.9 0.8-0.7 0.2-1.3 0.3-2 0.3-4 0.4-0.4 0.1-0.9 0.2-0.2 0-0.4 0c-0.4 0-0.8 0-1.2 0q-1 0.1-2 0.1c-0.7 0-1.5 0.1-2.2 0.1-0.7 0-1.5-0.1-2.2-0.1q-1 0-2-0.1c-0.4 0-0.8 0-1.2 0q-0.2 0-0.4 0-0.5-0.1-0.9-0.1-2-0.2-4-0.5-0.6-0.1-1.3-0.3-2-0.3-3.9-0.8-0.5-0.1-1-0.2-2.1-0.5-4.2-1.2-0.3-0.1-0.6-0.2-2.2-0.8-4.3-1.6-0.2-0.1-0.4-0.2-2.3-0.9-4.4-2-0.1 0-0.2-0.1-2.3-1.1-4.4-2.4 0 0 0 0-2.3-1.4-4.4-2.9c11.8 5.5 25.4 8.7 39.8 8.7z"/>
		</g>
	</g>
</svg>